<?xml version="1.0" standalone="no"?>
<!DOCTYPE svg PUBLIC "-//W3C//DTD SVG 20010904//EN"
 "http://www.w3.org/TR/2001/REC-SVG-20010904/DTD/svg10.dtd">
<svg version="1.0" xmlns="http://www.w3.org/2000/svg"
 width="512.000000pt" height="512.000000pt" viewBox="0 0 512.000000 512.000000"
 preserveAspectRatio="xMidYMid meet">

<g transform="translate(0.000000,512.000000) scale(0.100000,-0.100000)"
fill="#000000" stroke="none">
<path d="M1692 5109 c-46 -14 -109 -80 -122 -128 -7 -28 -10 -186 -8 -484 l3
-442 24 -38 c13 -21 42 -50 64 -65 l41 -27 866 0 866 0 41 27 c22 15 51 44 64
65 l24 38 0 465 0 465 -24 38 c-13 21 -42 50 -64 65 l-41 27 -850 2 c-519 1
-864 -2 -884 -8z m1468 -589 l0 -200 -600 0 -600 0 0 200 0 200 600 0 600 0 0
-200z"/>
<path d="M452 3500 c-109 -29 -187 -74 -273 -160 -54 -53 -86 -96 -112 -147
-65 -133 -68 -161 -65 -679 l3 -460 27 -41 c15 -22 44 -51 65 -64 l38 -24
1112 -3 1112 -2 3 -493 3 -493 27 -41 c41 -62 90 -88 168 -88 78 0 127 26 168
88 l27 41 3 493 3 493 1112 2 1112 3 38 24 c21 13 50 42 65 64 l27 41 3 460
c3 518 0 546 -65 679 -26 51 -58 94 -112 147 -87 87 -164 131 -277 160 -76 20
-117 20 -2108 19 -1967 0 -2033 -1 -2104 -19z m4171 -409 c21 -13 50 -42 65
-64 l27 -40 3 -334 3 -333 -2160 0 -2161 0 0 313 c0 189 4 327 11 350 13 47
77 113 121 126 21 6 793 9 2043 8 l2010 -2 38 -24z"/>
<path d="M1692 389 c-47 -14 -109 -79 -123 -131 -23 -89 12 -182 88 -229 l38
-24 866 0 865 0 41 27 c62 41 88 90 88 168 0 78 -26 127 -88 168 l-41 27 -850
2 c-519 1 -864 -2 -884 -8z"/>
</g>
</svg>
