<svg width="23.000000" height="23.000000" viewBox="0 0 23 23" fill="none" xmlns="http://www.w3.org/2000/svg" xmlns:xlink="http://www.w3.org/1999/xlink">
	<desc>
			Created with Pixso.
	</desc>
	<mask id="mask2_66" mask-type="alpha" maskUnits="userSpaceOnUse" x="0.000000" y="0.000000" width="23.000000" height="23.000000">
		<g clip-path="url(#clip2_66)">
			<path d="M18.1772 14.248C17.7064 13.7578 17.1384 13.4956 16.5365 13.4956C15.9394 13.4956 15.3666 13.7529 14.8763 14.2432L13.3424 15.772C13.2161 15.7041 13.0899 15.6411 12.9686 15.5781C12.7938 15.4907 12.6288 15.4082 12.488 15.3208C11.0511 14.4082 9.74531 13.2188 8.4929 11.6802C7.88611 10.9131 7.47835 10.2676 7.18224 9.61182C7.58029 9.24805 7.94922 8.86914 8.30844 8.50537C8.44436 8.36914 8.58028 8.22852 8.7162 8.09277C9.73561 7.07324 9.73561 5.75293 8.7162 4.7334L7.39097 3.4082C7.24049 3.25781 7.08515 3.10254 6.93952 2.94727C6.64827 2.646 6.34245 2.33545 6.02691 2.04395C5.55605 1.57812 4.99295 1.33057 4.40072 1.33057C3.8085 1.33057 3.23569 1.57812 2.75026 2.04395C2.7454 2.04883 2.7454 2.04883 2.74055 2.05371L1.09008 3.71875C0.468732 4.34033 0.114367 5.09766 0.0366983 5.97607C-0.0798049 7.39355 0.337666 8.71387 0.65805 9.57812C1.44445 11.6992 2.61919 13.6655 4.3716 15.772C6.49778 18.311 9.056 20.3159 11.9783 21.7285C13.0948 22.2573 14.5851 22.8838 16.2501 22.9907C16.352 22.9951 16.4588 23 16.5559 23C17.6773 23 18.619 22.5972 19.3568 21.7964C19.3617 21.7866 19.3714 21.7817 19.3763 21.772C19.6287 21.4663 19.9199 21.1895 20.2258 20.8936C20.4345 20.6943 20.6481 20.4858 20.8568 20.2671C21.3374 19.7671 21.5898 19.1846 21.5898 18.5874C21.5898 17.9858 21.3325 17.4082 20.8423 16.9224L18.1772 14.248ZM19.9151 19.3594C19.7258 19.5635 19.5316 19.748 19.3229 19.9517C19.0073 20.2524 18.687 20.5684 18.386 20.9224C17.8957 21.4468 17.318 21.6943 16.5608 21.6943C16.4879 21.6943 16.4103 21.6943 16.3375 21.6895C14.8957 21.5972 13.5559 21.0342 12.5511 20.5537C9.80357 19.2236 7.39097 17.3354 5.38615 14.9419C3.73083 12.9468 2.62404 11.1021 1.89104 9.12158C1.43959 7.91309 1.27455 6.97119 1.34736 6.08301C1.3959 5.51514 1.61435 5.04395 2.01726 4.64111L3.67257 2.98584C3.91044 2.7627 4.16286 2.64111 4.41043 2.64111C4.71625 2.64111 4.96382 2.82568 5.11916 2.98096C5.12401 2.98584 5.12887 2.99072 5.13372 2.99561C5.42983 3.27246 5.71138 3.55859 6.0075 3.86475C6.15798 4.02002 6.31332 4.17529 6.46866 4.33545L7.79388 5.66064C8.30844 6.17529 8.30844 6.65088 7.79388 7.16553C7.65311 7.30615 7.51719 7.44678 7.37641 7.58301C6.96865 8.00049 6.58031 8.38867 6.15798 8.76758C6.14827 8.77686 6.13856 8.78174 6.13371 8.7915C5.71624 9.20898 5.79391 9.6167 5.88128 9.89355C5.88614 9.9082 5.89099 9.92285 5.89585 9.93701C6.2405 10.772 6.72593 11.5586 7.46379 12.4956L7.46865 12.5005C8.80843 14.1509 10.221 15.437 11.7793 16.4229C11.9783 16.5488 12.1822 16.6509 12.3764 16.748C12.5511 16.8354 12.7162 16.918 12.8569 17.0049C12.8763 17.0146 12.8958 17.0293 12.9152 17.0391C13.0802 17.1216 13.2356 17.1606 13.3958 17.1606C13.7987 17.1606 14.0511 16.9082 14.1336 16.8257L15.7938 15.1655C15.9588 15.0005 16.221 14.8013 16.5268 14.8013C16.8277 14.8013 17.0753 14.9907 17.2258 15.1558C17.2307 15.1606 17.2307 15.1606 17.2355 15.1655L19.9102 17.8398C20.4102 18.3354 20.4102 18.8447 19.9151 19.3594Z" fill-rule="evenodd" fill="#000000"/>
			<path d="M12.4297 5.4707C13.7016 5.68457 14.8569 6.28662 15.7792 7.20898C16.7015 8.13086 17.2986 9.28662 17.5171 10.5581C17.5705 10.8784 17.8471 11.1021 18.1627 11.1021C18.2015 11.1021 18.2355 11.0972 18.2743 11.0923C18.6335 11.0342 18.8714 10.6943 18.8132 10.335C18.551 8.7959 17.8229 7.39307 16.7112 6.28174C15.5996 5.16992 14.1967 4.44189 12.6579 4.17969C12.2987 4.12158 11.9637 4.35938 11.9006 4.71387C11.8375 5.06787 12.0705 5.4126 12.4297 5.4707Z" fill-rule="evenodd" fill="#000000"/>
			<path d="M22.9733 10.146C22.5412 7.61182 21.3471 5.30615 19.5121 3.47119C17.6772 1.63623 15.3714 0.441895 12.8375 0.00976562C12.4831 -0.0532227 12.1482 0.189453 12.0851 0.543945C12.0268 0.90332 12.2647 1.23828 12.6239 1.30127C14.886 1.68457 16.9491 2.75732 18.5898 4.39355C20.2306 6.03418 21.2985 8.09717 21.682 10.3594C21.7354 10.6797 22.0121 10.9028 22.3276 10.9028C22.3665 10.9028 22.4005 10.8984 22.4393 10.8936C22.7937 10.8398 23.0364 10.5 22.9733 10.146Z" fill-rule="evenodd" fill="#000000"/>
		</g>
	</mask>
	<g mask="url(#mask2_66)">
		<rect x="-9.060608" y="-81.545410" width="130.333328" height="120.575760" fill="#FFFFFF"/>
	</g>
	<defs>
		<clipPath id="clip2_66">
			<rect width="23.000000" height="23.000000" fill="white"/>
		</clipPath>
	</defs>
</svg>
